# xmcd CD database file
#
# Track frame offsets:
#	150
#	16791
#	45196
#	58758
#	100229
#	119916
#	141230
#	160460
#
# Disc length: 2370 seconds
#
# Revision: 0
# Processed by: cddbd v1.5.2PL0 Copyright (c) Steve Scherf et al.
# Submitted via: CDex 1.50
#
DISCID=6a094008
DTITLE=Matthias Rethberg Trio - !ES!
DYEAR=2012
DGENRE=Jazz
TTITLE0=Matthias Rethberg Trio - !ES! erwacht
TTITLE1=Matthias Rethberg Trio - !ES! wächst
TTITLE2=Matthias Rethberg Trio - !ES! spielt
TTITLE3=Matthias Rethberg Trio - !ES! reist
TTITLE4=Matthias Rethberg Trio - !ES! verzeiht
TTITLE5=Matthias Rethberg Trio - !ES! befreit
TTITLE6=Matthias Rethberg Trio - !ES! schläft
TTITLE7=Matthias Rethberg Trio - !ES! träumt
EXTD=YEAR: 2012
EXTT0=
EXTT1=
EXTT2=
EXTT3=
EXTT4=
EXTT5=
EXTT6=
EXTT7=
PLAYORDER=
